<?xml version="1.0" encoding="iso-8859-1"?>
<!-- Uploaded to: SVG Repo, www.svgrepo.com, Generator: SVG Repo Mixer Tools -->
<svg fill="#000000" version="1.1" id="Layer_1" xmlns="http://www.w3.org/2000/svg" xmlns:xlink="http://www.w3.org/1999/xlink" 
	 viewBox="0 0 512 512" xml:space="preserve">
<g>
	<g>
		<path d="M429.905,434.548c-27.721-7.392-47.081-32.595-47.081-61.277v-144.06c46.193-44.553,77.792-103.185,88.617-168.157
			l1.848-11.098l-17.874-2.971l-1.839,11.088c-10.545,63.215-41.917,120.134-87.856,162.513h-1.015v0.915
			c-20.827,19.033-44.608,35.104-70.78,47.425l-12.783,6.015h-50.523c-31.128-13.045-59.175-31.562-83.336-54.047v-0.299h-0.335
			c-46.465-43.376-78.235-101.735-87.884-166.065l-2.473-16.47l-17.919,2.682l2.473,16.47
			c9.884,65.915,41.527,126.005,88.019,171.564v144.486c0,28.681-19.36,53.884-47.072,61.286L0,456.435l4.675,17.502l82.095-21.887
			c35.63-9.512,60.516-41.908,60.516-78.779V245.047c23.264,19.414,49.463,35.557,78.081,47.334
			c1.096,0.462,2.274,0.688,3.452,0.688h54.355c1.332,0,2.645-0.29,3.859-0.861l14.604-6.876
			c22.856-10.753,43.973-24.215,63.07-39.87v127.807c0,36.871,24.886,69.267,60.525,78.779l82.095,21.887L512,456.435
			L429.905,434.548z"/>
	</g>
</g>
<g>
	<g>
		<path d="M312.996,132.659c-3.596,3.606-8.751,5.236-13.788,4.421l-37.632-6.269c-3.705-0.616-7.456-0.616-11.161,0l-37.623,6.269
			c-5.019,0.824-10.192-0.815-13.797-4.421l-12.819,12.81c7.737,7.728,18.798,11.288,29.596,9.485l37.632-6.269
			c1.721-0.281,3.479-0.281,5.2,0l37.632,6.269c1.848,0.308,3.696,0.462,5.544,0.462c8.932,0,17.629-3.542,24.034-9.947
			L312.996,132.659z"/>
	</g>
</g>
<g>
	<g>
		<path d="M233.828,162.409l8.099,16.207c8.815-4.403,19.332-4.403,28.138,0l8.099-16.207
			C264.285,155.479,247.706,155.479,233.828,162.409z"/>
	</g>
</g>
<g>
	<g>
		<path d="M317.788,323.926c-8.688-8.697-21.697-11.36-33.12-6.803l-28.672,11.478l-28.682-11.478
			c-11.433-4.557-24.424-1.893-33.12,6.803c-7.13,7.13-10.309,17.303-8.498,27.214l12.855,70.707
			c2.654,14.613,15.364,25.221,30.222,25.221h9.195c6.568,0,12.819-2.047,18.028-5.843c5.209,3.796,11.46,5.843,18.028,5.843h9.195
			c14.857,0,27.558-10.608,30.212-25.221l12.855-70.698C328.089,341.229,324.918,331.056,317.788,323.926z M308.476,347.897
			l-12.855,70.707c-1.096,5.997-6.305,10.346-12.402,10.346h-9.195c-3.37,0-6.532-1.314-8.905-3.687l-2.718-2.718
			c-1.767-1.767-4.086-2.654-6.405-2.654s-4.638,0.888-6.405,2.654l-2.718,2.718c-2.383,2.373-5.544,3.687-8.905,3.687h-9.195
			c-6.088,0-11.306-4.348-12.393-10.346l-12.855-70.716c-0.743-4.058,0.562-8.217,3.488-11.152c3.569-3.56,8.896-4.675,13.58-2.79
			l32.042,12.819c2.156,0.87,4.575,0.87,6.731,0l32.033-12.819c4.675-1.884,10.01-0.779,13.589,2.79
			C307.914,339.662,309.218,343.829,308.476,347.897z"/>
	</g>
</g>
<g>
	<g>
		<rect x="265.073" y="356.485" width="18.118" height="18.118"/>
	</g>
</g>
<g>
	<g>
		<rect x="228.836" y="356.485" width="18.118" height="18.118"/>
	</g>
</g>
<g>
	<g>
		<rect x="265.073" y="392.722" width="18.118" height="18.118"/>
	</g>
</g>
<g>
	<g>
		<rect x="228.836" y="392.722" width="18.118" height="18.118"/>
	</g>
</g>
</svg>